<svg id="Layer_1" data-name="Layer 1" xmlns="http://www.w3.org/2000/svg" viewBox="0 0 988.15 114.83"><defs><style>.cls-1{fill:#f9fafb;}</style></defs><title>devs-and-pixels-logo</title><path class="cls-1" d="M49.32,582.92V486H95.16q16.07,0,28.25,6a45.74,45.74,0,0,1,19.05,16.76q6.85,10.8,6.85,25.76t-6.85,25.69A45.53,45.53,0,0,1,123.41,577q-12.18,6-28.25,6ZM76.74,561H94.05a31.69,31.69,0,0,0,14.48-3.12,22.73,22.73,0,0,0,9.62-9.14,31.57,31.57,0,0,0,0-28.74,22.87,22.87,0,0,0-9.62-9.07,31.69,31.69,0,0,0-14.48-3.12H76.74Z" transform="translate(-49.32 -469.33)"/><path class="cls-1" d="M201.8,584.17q-13.29,0-23.2-5.06a37.94,37.94,0,0,1-15.37-13.85,37.06,37.06,0,0,1-5.47-20,37.85,37.85,0,0,1,5.33-20,36.72,36.72,0,0,1,14.75-13.72,47.93,47.93,0,0,1,41.41-.41,35,35,0,0,1,14.54,13.23q5.4,8.71,5.4,21.19c0,.92,0,2-.13,3.18s-.19,2.31-.28,3.33H179.36V538.19h45.43l-10,3.87A17.46,17.46,0,0,0,213,533.2a14.72,14.72,0,0,0-5.54-5.82,17.36,17.36,0,0,0-16.48,0,14,14,0,0,0-5.47,5.89,19.36,19.36,0,0,0-1.94,8.93v4a19,19,0,0,0,2.28,9.55,15.23,15.23,0,0,0,6.58,6.17,22.7,22.7,0,0,0,10.25,2.14,25.4,25.4,0,0,0,9.49-1.59,28.34,28.34,0,0,0,7.82-4.92L233.79,572a35,35,0,0,1-13.29,9.07A50.82,50.82,0,0,1,201.8,584.17Z" transform="translate(-49.32 -469.33)"/><path class="cls-1" d="M270.91,582.92,240,507.85h27l24.65,62.74H278.11L304,507.85h25.07l-31,75.07Z" transform="translate(-49.32 -469.33)"/><path class="cls-1" d="M361.9,584.17A78.12,78.12,0,0,1,343.27,582a53.32,53.32,0,0,1-14.61-5.54l7.9-18a47.19,47.19,0,0,0,12.32,5.05,53.87,53.87,0,0,0,13.85,1.87c4.44,0,7.5-.46,9.21-1.38a4.19,4.19,0,0,0,2.57-3.74,3.43,3.43,0,0,0-2.43-3.26,25.6,25.6,0,0,0-6.37-1.59c-2.63-.37-5.52-.78-8.65-1.25s-6.31-1.08-9.49-1.87a30.2,30.2,0,0,1-8.73-3.6,17.94,17.94,0,0,1-6.3-6.58,21.11,21.11,0,0,1-2.35-10.52,20.71,20.71,0,0,1,4.22-12.81q4.23-5.61,12.4-8.87t19.94-3.25a83,83,0,0,1,16,1.59A44.67,44.67,0,0,1,396.39,513l-7.9,17.86a38.27,38.27,0,0,0-11.08-4.36,51,51,0,0,0-10.52-1.18q-6.64,0-9.35,1.53c-1.8,1-2.7,2.26-2.7,3.74a3.67,3.67,0,0,0,2.35,3.39,21.66,21.66,0,0,0,6.31,1.8c2.63.42,5.51.83,8.65,1.25a77.56,77.56,0,0,1,9.49,1.87,31.86,31.86,0,0,1,8.72,3.67,18.15,18.15,0,0,1,6.31,6.51A20.83,20.83,0,0,1,399,559.51,20.07,20.07,0,0,1,394.8,572q-4.23,5.53-12.47,8.86T361.9,584.17Z" transform="translate(-49.32 -469.33)"/><path class="cls-1" d="M613.12,582.92V486h44.32q13.29,0,22.92,4.3a33.49,33.49,0,0,1,14.89,12.39,34.42,34.42,0,0,1,5.26,19.18,32.71,32.71,0,0,1-20.15,31.37q-9.63,4.37-22.92,4.36H628.36l12.18-11.91v37.26Zm27.42-34.35L628.36,536h27.42q8.58,0,12.81-3.74t4.22-10.39q0-6.78-4.22-10.52t-12.81-3.74H628.36L640.54,495Z" transform="translate(-49.32 -469.33)"/><path class="cls-1" d="M727.1,499.54q-7.2,0-11.63-4a13.45,13.45,0,0,1,0-19.95q4.42-4,11.63-4t11.64,3.81a12.3,12.3,0,0,1,4.43,9.76,13.51,13.51,0,0,1-4.36,10.32Q734.45,499.54,727.1,499.54ZM714,582.92V507.85h26.31v75.07Z" transform="translate(-49.32 -469.33)"/><path class="cls-1" d="M748.57,582.92l34.48-45.29-.55,15-33.1-44.74H779l18.56,26.46-11.08.55,19.66-27H834l-33.1,43.77v-14.4L835,582.92h-30l-19.39-28.25,11.08,1.52L777.1,582.92Z" transform="translate(-49.32 -469.33)"/><path class="cls-1" d="M880.14,584.17q-13.29,0-23.2-5.06a37.88,37.88,0,0,1-15.37-13.85,37.06,37.06,0,0,1-5.47-20,37.76,37.76,0,0,1,5.33-20,36.72,36.72,0,0,1,14.75-13.72,47.93,47.93,0,0,1,41.41-.41,35,35,0,0,1,14.54,13.23q5.4,8.71,5.4,21.19c0,.92,0,2-.14,3.18s-.18,2.31-.27,3.33H857.7V538.19h45.43l-10,3.87a17.46,17.46,0,0,0-1.87-8.86,14.72,14.72,0,0,0-5.54-5.82,17.36,17.36,0,0,0-16.48,0,14,14,0,0,0-5.47,5.89,19.36,19.36,0,0,0-1.94,8.93v4a19,19,0,0,0,2.28,9.55,15.23,15.23,0,0,0,6.58,6.17A22.7,22.7,0,0,0,881,564.08a25.4,25.4,0,0,0,9.49-1.59,28.34,28.34,0,0,0,7.82-4.92L912.13,572a35,35,0,0,1-13.29,9.07A50.82,50.82,0,0,1,880.14,584.17Z" transform="translate(-49.32 -469.33)"/><path class="cls-1" d="M929.72,582.92V480.16H956V582.92Z" transform="translate(-49.32 -469.33)"/><path class="cls-1" d="M1000.35,584.17A78.12,78.12,0,0,1,981.72,582a53.06,53.06,0,0,1-14.61-5.54l7.9-18a46.9,46.9,0,0,0,12.32,5.05,53.87,53.87,0,0,0,13.85,1.87q6.65,0,9.21-1.38a4.18,4.18,0,0,0,2.56-3.74,3.44,3.44,0,0,0-2.42-3.26,25.72,25.72,0,0,0-6.37-1.59c-2.63-.37-5.52-.78-8.66-1.25s-6.3-1.08-9.48-1.87a30.2,30.2,0,0,1-8.73-3.6,17.94,17.94,0,0,1-6.3-6.58,21.11,21.11,0,0,1-2.35-10.52,20.71,20.71,0,0,1,4.22-12.81q4.21-5.61,12.39-8.87t20-3.25a82.87,82.87,0,0,1,16,1.59,44.64,44.64,0,0,1,13.65,4.78l-7.9,17.86a38.38,38.38,0,0,0-11.08-4.36,51,51,0,0,0-10.52-1.18q-6.65,0-9.35,1.53c-1.8,1-2.7,2.26-2.7,3.74a3.67,3.67,0,0,0,2.35,3.39,21.68,21.68,0,0,0,6.3,1.8c2.64.42,5.52.83,8.66,1.25a77.56,77.56,0,0,1,9.49,1.87,31.86,31.86,0,0,1,8.72,3.67,18,18,0,0,1,6.3,6.51,20.72,20.72,0,0,1,2.36,10.45,20,20,0,0,1-4.23,12.47q-4.21,5.53-12.46,8.86T1000.35,584.17Z" transform="translate(-49.32 -469.33)"/><path class="cls-1" d="M462.73,583.08V566.83H446.48v-32.5h16.25V518.08H446.48v-32.5h16.25V469.33h32.5v16.25H479v32.5h16.25v-32.5h16.25v32.5h16.25V501.83h32.5v16.25H544v16.25H527.73v16.25H544v16.25h16.25v16.25h-32.5V566.83H511.48V550.58H495.23V534.33H479v32.5h32.5v16.25Z" transform="translate(-49.32 -469.33)"/></svg>